<?xml version="1.0" encoding="utf-8"?>
<!-- Generator: Adobe Illustrator 21.1.0, SVG Export Plug-In . SVG Version: 6.00 Build 0)  -->
<svg version="1.1" id="Layer_1" xmlns="http://www.w3.org/2000/svg" xmlns:xlink="http://www.w3.org/1999/xlink" x="0px" y="0px"
	 viewBox="0 0 200 200" style="enable-background:new 0 0 200 200;" xml:space="preserve">
<style type="text/css">
	.st0{fill:#020203;}
</style>
<g>
	<path class="st0" d="M165.5,84.8l8.6-21.3c1-2.4-0.2-3.7-2.7-2.9l-8.6,2.7c-9.5-20-26.2-35.1-47.1-42.6c-21-7.6-43.8-6.6-64,2.9
		C31.5,33.1,16.1,49.9,8.5,71c-5.4,14.9-6.5,30.7-3.2,45.9c1.3,6.2,3.4,12.3,6.1,18.1c9.5,20.3,26.3,35.6,47.3,43.2
		c21,7.6,43.8,6.6,64-2.9c2.9-1.3,5.7-2.7,8.3-4.5c3.4-2.4,7-4.5,3.5-9.6c-3.6-5.2-10.6-1.3-17.5,1.9c-17,8-36.1,8.8-53.7,2.4
		c-17.7-6.4-31.8-19.3-39.7-36.3c-2.3-4.9-4-10-5.1-15.2c-2.7-12.7-1.8-26,2.7-38.5c6.4-17.7,19.3-31.8,36.3-39.7
		c17-8,36.1-8.8,53.7-2.4c16.9,6.1,30.5,18.2,38.6,34.1l-8.9,2.8c-2.5,0.8-2.7,2.6-0.5,3.9l19.4,12.3
		C161.9,88,164.5,87.2,165.5,84.8z"/>
	<path class="st0" d="M82.9,50.7v48.4L50,125.9c-2.3,1.9-2.7,5.3-0.8,7.7c1.1,1.3,2.6,2,4.2,2c1.2,0,2.4-0.4,3.4-1.2l36.9-30.1V50.7
		c0-3-2.4-5.5-5.5-5.5C85.3,45.2,82.9,47.7,82.9,50.7z"/>
	<path class="st0" d="M175,103.3c-5.8,0-11.3,2.3-15.4,6.3l-7.1,6.8l-7-6.7c-4.1-4.1-9.6-6.4-15.4-6.4c-5.8,0-11.3,2.3-15.4,6.4
		c-4.1,4.1-6.4,9.6-6.4,15.4c0,5.8,2.3,11.3,6.4,15.4c4.1,4.1,9.6,6.4,15.4,6.4c5.8,0,11.3-2.3,15.4-6.3l7.1-6.8l7,6.7
		c4.1,4.1,9.6,6.4,15.5,6.4c5.8,0,11.3-2.3,15.4-6.4c4.1-4.1,6.4-9.6,6.4-15.4c0-5.8-2.3-11.3-6.4-15.4
		C186.3,105.6,180.8,103.3,175,103.3z M136.7,131.6c-3.5,3.5-9.5,3.5-13,0c-1.7-1.7-2.7-4-2.7-6.5c0-2.5,1-4.8,2.7-6.5
		c1.7-1.7,4-2.7,6.5-2.7c2.5,0,4.8,1,6.6,2.8l6.7,6.4L136.7,131.6z M181.5,131.6c-3.5,3.5-9.4,3.6-13.1-0.1l-6.7-6.4l6.8-6.5
		c3.5-3.5,9.5-3.5,13,0c1.7,1.7,2.7,4,2.7,6.5C184.2,127.6,183.2,129.9,181.5,131.6z"/>
</g>
</svg>
