<?xml version="1.0" encoding="utf-8"?>
<!-- Generator: Adobe Illustrator 21.1.0, SVG Export Plug-In . SVG Version: 6.00 Build 0)  -->
<svg version="1.1" id="Layer_1" xmlns="http://www.w3.org/2000/svg" xmlns:xlink="http://www.w3.org/1999/xlink" x="0px" y="0px"
	 viewBox="0 0 200 200" style="enable-background:new 0 0 200 200;" xml:space="preserve">
<style type="text/css">
	.st0{fill:#0C0D0D;}
</style>
<g>
	<path class="st0" d="M100,191.3c-50.3,0-91.3-41-91.3-91.3S49.7,8.7,100,8.7s91.3,41,91.3,91.3S150.3,191.3,100,191.3z M100,23.7
		c-42.1,0-76.3,34.2-76.3,76.3c0,42.1,34.2,76.3,76.3,76.3s76.3-34.2,76.3-76.3C176.3,57.9,142.1,23.7,100,23.7z"/>
	<path class="st0" d="M100,36.2v127.6c35.2,0,63.8-28.6,63.8-63.8C163.8,64.8,135.2,36.2,100,36.2z"/>
</g>
</svg>
