<?xml version="1.0" encoding="utf-8"?>
<!-- Generator: Adobe Illustrator 21.1.0, SVG Export Plug-In . SVG Version: 6.00 Build 0)  -->
<svg version="1.1" id="Layer_1" xmlns="http://www.w3.org/2000/svg" xmlns:xlink="http://www.w3.org/1999/xlink" x="0px" y="0px"
	 viewBox="0 0 200 200" style="enable-background:new 0 0 200 200;" xml:space="preserve">
<style type="text/css">
	.st0{fill:#0C0D0D;}
</style>
<g>
	<path class="st0" d="M126.8,103.4c2.1-0.6,7-2,9.2-8.7l4.7-13.7l1.9,0.6c0.9,0.3,1.8-0.2,2.1-1l2.5-7.4c0.3-0.9-0.2-1.8-1-2.1
		L85.7,50.6c-0.9-0.3-1.8,0.2-2.1,1L81.1,59c-0.3,0.9,0.2,1.8,1,2.1l1.9,0.6l-4.7,14c-2.2,6.6-0.8,8.8,2.1,12.2l12.2,14.7l-1.4,4
		c-4.7,1-16.9,3.7-18.6,4.2c-2.1,0.6-7,2-9.2,8.7l-4,11.8l-1.9-0.6c-0.9-0.3-1.8,0.2-2.1,1l-2.5,7.4c-0.3,0.9,0.2,1.8,1,2.1
		l60.5,20.6c0.9,0.3,1.8-0.2,2.1-1l2.5-7.4c0.3-0.9-0.2-1.8-1-2.1l-1.9-0.6l4.1-12.1c2.2-6.6,0.8-8.8-2.1-12.2l-12.2-14.7l1.4-4
		C112.9,106.5,125.2,103.9,126.8,103.4z M101.3,114.1l13.3,15.9c1,1.2,1.6,1.9,1.7,2.5c0.2,0.7-0.1,2-0.7,4l-4.1,12.1L66,133.1
		l4-11.8c1.3-3.7,3.6-4.4,5.2-4.9c1.3-0.4,12.6-2.8,19.8-4.4c1-0.2,1.8-1,2.2-1.9l2.4-7.2c0.3-1,0.1-2.1-0.5-2.9L85.9,84.1l0,0
		c-1-1.2-1.6-1.9-1.7-2.5c-0.2-0.7,0.1-2,0.7-4l4.7-14l45.5,15.5l-4.7,13.7c-1.3,3.7-3.6,4.4-5.2,4.9c-1.3,0.4-12.6,2.8-19.8,4.4
		c-1,0.2-1.8,1-2.2,1.9l-2.4,7.2C100.4,112.2,100.6,113.3,101.3,114.1z"/>
	<path class="st0" d="M104.8,100.2c2.7-0.3,19.2-3.7,19.2-3.7s1.3-0.5-0.3-0.8c-3.9-0.7-11.1,0.9-19-1.1c-7.9-2-9.5-9-14.6-9.5
		c-1.1-0.1-1.3,0.3-0.3,1.5c1,1.1,9.9,11,11.1,12.3C102,100.2,102.9,100.4,104.8,100.2z"/>
	<path class="st0" d="M74.4,131.5c-1.7,0.7-2.6,1.4,0.4,2.4c2.4,0.8,26.6,9.1,29.7,10.1c3.1,1,2.2-0.4,1.3-2.3
		c-1.9-3.6-5.9-9.3-12.9-11.7C85.4,127.5,78.1,129.8,74.4,131.5z"/>
	<ellipse transform="matrix(0.3221 -0.9467 0.9467 0.3221 -29.4906 166.2479)" class="st0" cx="101.3" cy="103.7" rx="1" ry="0.8"/>
	<ellipse transform="matrix(0.3219 -0.9468 0.9468 0.3219 -34.0459 167.6583)" class="st0" cx="100" cy="107.6" rx="1" ry="0.8"/>
	<ellipse transform="matrix(0.3219 -0.9468 0.9468 0.3219 -38.6126 169.0456)" class="st0" cx="98.7" cy="111.5" rx="1" ry="0.8"/>
	<ellipse transform="matrix(0.3219 -0.9468 0.9468 0.3219 -43.1795 170.4319)" class="st0" cx="97.4" cy="115.4" rx="1" ry="0.8"/>
	<ellipse transform="matrix(0.3222 -0.9467 0.9467 0.3222 -47.7656 171.7679)" class="st0" cx="96.1" cy="119.2" rx="1" ry="0.8"/>
	<ellipse transform="matrix(0.3221 -0.9467 0.9467 0.3221 -52.3288 173.1628)" class="st0" cx="94.7" cy="123.1" rx="1" ry="0.8"/>
	<ellipse transform="matrix(0.3218 -0.9468 0.9468 0.3218 -56.8807 174.5962)" class="st0" cx="93.4" cy="127" rx="1" ry="0.8"/>
	<path class="st0" d="M137.2,170.7c-1.3,0.8-2.7,1.5-4.1,2.1c-0.2,0.1-0.4,0.2-0.6,0.4c-0.2,0.1-0.4,0.2-0.7,0.3
		c-5.9,2.8-12.1,4.7-18.5,5.9c-0.1,0-0.2,0-0.2,0c-1.5,0.3-3,0.5-4.6,0.7c0,0,0,0,0,0c-2.8,0.3-5.6,0.5-8.4,0.5
		c-32.8,0-60.7-21-71.1-50.3c-0.2-0.4-0.3-0.9-0.5-1.3c-2.5-7.5-3.8-15.4-3.8-23.7c0-8.3,1.4-16.3,3.8-23.8c0.1-0.2,0.1-0.3,0.2-0.5
		c0.1-0.4,0.3-0.9,0.5-1.3c0.1-0.2,0.1-0.4,0.2-0.6c8.6-23.2,28.3-41,52.6-47c0,0,0,0,0,0c0.4-0.1,0.7-0.2,1.1-0.3c0,0,0.1,0,0.1,0
		c5.3-1.2,10.8-1.9,16.5-1.9l0.1,7.8c0,2.4,1.5,3.1,3.4,1.5l16.4-13.9c1.8-1.6,1.8-4.1,0-5.6L102.8,5.9c-1.9-1.5-3.4-0.8-3.3,1.6
		l0.1,7.7c-23.8,0.1-46.2,9.5-63,26.3c-1.7,1.7-3.2,3.4-4.8,5.1c0,0,0,0,0,0c-0.1,0.1-0.1,0.1-0.2,0.2c-13.3,15.6-20.7,35-21.3,55.5
		c0,0.2,0,0.3,0,0.5c0,0.7,0,1.4,0,2.1c0,1.1,0,2.3,0.1,3.4c0,0.1,0,0.3,0,0.4c0.8,18.8,7.2,36.5,18.6,51.2c0,0.1,0.1,0.1,0.1,0.2
		c1.1,1.4,2.3,2.9,3.5,4.2c0.1,0.1,0.2,0.2,0.2,0.2c1.2,1.4,2.5,2.7,3.8,4c13.3,13.3,30.1,22,48.4,25c0.1,0,0.1,0,0.2,0
		c0,0,0.1,0,0.1,0c4.9,0.8,9.8,1.2,14.9,1.2c13.2,0,26-2.8,37.9-8.4c0.3-0.1,0.5-0.3,0.7-0.4c0.3-0.1,0.5-0.2,0.8-0.3
		c1.6-0.8,3.3-1.7,4.9-2.6c3.5-2,4.7-6.4,2.7-9.8C145.1,169.9,140.7,168.7,137.2,170.7z"/>
	<path class="st0" d="M162.6,63c1.4,2.1,3.7,3.2,6,3.2c1.4,0,2.8-0.4,4-1.2c3.3-2.2,4.2-6.7,2-10c-1-1.5-2.1-3-3.2-4.5
		c-2.4-3.2-7-3.8-10.1-1.3c-3.2,2.4-3.8,7-1.3,10.1C160.9,60.5,161.8,61.7,162.6,63z"/>
	<path class="st0" d="M171.8,82c0.5,1.5,0.9,2.9,1.3,4.4c0.8,3.3,3.8,5.4,7,5.4c0.6,0,1.2-0.1,1.8-0.2c3.9-1,6.2-4.9,5.2-8.8
		c-0.4-1.8-1-3.5-1.5-5.3c-1.2-3.8-5.3-5.9-9.1-4.7C172.7,74.1,170.6,78.2,171.8,82z"/>
	<path class="st0" d="M167.2,153.7c-3-2.6-7.6-2.3-10.2,0.7c-1,1.2-2,2.3-3.1,3.4c-2.8,2.9-2.7,7.4,0.1,10.2c1.4,1.4,3.2,2.1,5,2.1
		c1.9,0,3.8-0.7,5.2-2.2c1.3-1.3,2.5-2.7,3.7-4C170.6,160.9,170.2,156.3,167.2,153.7z"/>
	<path class="st0" d="M182.8,100.4c-4-0.1-7.3,3-7.4,7c0,1.5-0.1,3.1-0.3,4.6c-0.4,4,2.6,7.5,6.5,7.9c0.2,0,0.4,0,0.7,0
		c3.7,0,6.8-2.8,7.2-6.6c0.2-1.8,0.3-3.7,0.3-5.5C190,103.8,186.8,100.5,182.8,100.4z"/>
	<path class="st0" d="M179.6,128.4c-3.7-1.5-7.9,0.4-9.4,4.1c-0.6,1.4-1.2,2.8-1.8,4.2c-1.7,3.6-0.1,7.9,3.5,9.6c1,0.5,2,0.7,3,0.7
		c2.7,0,5.3-1.6,6.6-4.2c0.8-1.7,1.5-3.3,2.2-5C185.2,134,183.3,129.8,179.6,128.4z"/>
	<path class="st0" d="M155,43c2.4-3.2,1.7-7.7-1.5-10.1c-1.5-1.1-3-2.1-4.5-3.1c-3.3-2.2-7.8-1.2-10,2.1c-2.2,3.3-1.2,7.8,2.1,10
		c1.3,0.8,2.6,1.7,3.8,2.6c1.3,1,2.8,1.4,4.3,1.4C151.4,45.9,153.6,44.9,155,43z"/>
</g>
</svg>
